{
    "asset": {
        "version": "2.0",
        "generator": "Open Asset Import Library (assimp v5.0.5eb040c7)"
    },
    "accessors": [
        {
            "bufferView": 0,
            "byteOffset": 0,
            "componentType": 5126,
            "count": 24,
            "type": "VEC3",
            "max": [
                1.0,
                1.0,
                1.0
            ],
            "min": [
                -1.0,
                -1.0,
                -1.0
            ]
        },
        {
            "bufferView": 1,
            "byteOffset": 0,
            "componentType": 5126,
            "count": 24,
            "type": "VEC3",
            "max": [
                1.0,
                1.0,
                1.0
            ],
            "min": [
                -1.0,
                -1.0,
                -1.0
            ]
        },
        {
            "bufferView": 2,
            "byteOffset": 0,
            "componentType": 5125,
            "count": 36,
            "type": "SCALAR",
            "max": [
                23
            ],
            "min": [
                0
            ]
        }
    ],
    "buffers": [
        {
            "byteLength": 720,
            "uri": "result.bin"
        }
    ],
    "bufferViews": [
        {
            "buffer": 0,
            "byteOffset": 0,
            "byteLength": 288,
            "target": 34962
        },
        {
            "buffer": 0,
            "byteOffset": 288,
            "byteLength": 288,
            "target": 34962
        },
        {
            "buffer": 0,
            "byteOffset": 576,
            "byteLength": 144,
            "target": 34963
        }
    ],
    "materials": [
        {
            "name": "Material.002",
            "pbrMetallicRoughness": {
                "baseColorFactor": [
                    0.800000011920929,
                    0.800000011920929,
                    0.800000011920929,
                    1.0
                ],
                "metallicFactor": 0.0,
                "roughnessFactor": 0.8482106924057007
            }
        }
    ],
    "meshes": [
        {
            "name": "Cube.001",
            "primitives": [
                {
                    "mode": 4,
                    "material": 0,
                    "indices": 2,
                    "attributes": {
                        "POSITION": 0,
                        "NORMAL": 1
                    }
                }
            ]
        }
    ],
    "nodes": [
        {
            "name": "RootNode",
            "children": [
                1,
                2,
                3
            ]
        },
        {
            "name": "Area",
            "matrix": [
                99.62286376953125,
                -2.687544053969759e-7,
                -8.676794052124024,
                0.0,
                -8.676791191101075,
                0.07760089635848999,
                -99.6228256225586,
                0.0,
                0.006733537185937166,
                99.99996948242188,
                0.07730820029973984,
                0.0,
                -560.8157348632813,
                2525.096435546875,
                -3369.84375,
                1.0
            ]
        },
        {
            "name": "Camera",
            "matrix": [
                -6.071918487548828,
                -0.6505368947982788,
                -99.81336975097656,
                0.0,
                -0.6837122440338135,
                99.99581146240235,
                -0.6101338863372803,
                0.0,
                99.81314849853516,
                0.6453894376754761,
                -6.076111793518066,
                0.0,
                87.18257904052735,
                2558.488525390625,
                3006.1728515625,
                1.0
            ]
        },
        {
            "name": "fog",
            "matrix": [
                -3731.976806640625,
                0.0,
                0.0,
                0.0,
                0.0,
                0.0006080162129364908,
                3731.976806640625,
                0.0,
                0.0,
                -3731.976806640625,
                0.0006080162129364908,
                0.0,
                -266.59466552734377,
                1846.5528564453126,
                -476.4788513183594,
                1.0
            ],
            "mesh": 0
        }
    ],
    "scenes": [
        {
            "nodes": [
                0
            ]
        }
    ],
    "scene": 0
}